<svg width="29" height="25" viewBox="0 0 29 25" fill="none" xmlns="http://www.w3.org/2000/svg">
<g clip-path="url(#clip0_2887_36)">
<path d="M0.202942 0.0239258H28.5102V8.34195H0.202942V0.0239258Z" fill="#FF9933"/>
<path d="M0.202942 8.34155H28.5102V16.6596H0.202942V8.34155Z" fill="white"/>
<path d="M0.202942 16.6589H28.5102V24.977H0.202942V16.6589Z" fill="#128807"/>
<path d="M14.3566 15.8284C15.9201 15.8284 17.1875 14.3386 17.1875 12.5009C17.1875 10.6631 15.9201 9.17334 14.3566 9.17334C12.7932 9.17334 11.5258 10.6631 11.5258 12.5009C11.5258 14.3386 12.7932 15.8284 14.3566 15.8284Z" fill="#000088"/>
<path d="M14.3569 15.4134C15.7252 15.4134 16.8344 14.1096 16.8344 12.5012C16.8344 10.8929 15.7252 9.58911 14.3569 9.58911C12.9886 9.58911 11.8795 10.8929 11.8795 12.5012C11.8795 14.1096 12.9886 15.4134 14.3569 15.4134Z" fill="white"/>
<path d="M14.3574 13.0862C14.6316 13.0862 14.8538 12.8247 14.8538 12.5021C14.8538 12.1795 14.6316 11.918 14.3574 11.918C14.0833 11.918 13.861 12.1795 13.861 12.5021C13.861 12.8247 14.0833 13.0862 14.3574 13.0862Z" fill="#000088"/>
<path d="M16.8012 13.031C16.8723 13.042 16.9373 12.9851 16.9464 12.9039C16.9555 12.8227 16.9052 12.748 16.8341 12.737C16.763 12.726 16.698 12.7829 16.6889 12.8641C16.6798 12.9453 16.7301 13.02 16.8012 13.031Z" fill="#000088"/>
<path d="M14.3594 15.4158L14.4468 13.6668L14.3594 12.834L14.272 13.6668L14.3594 15.4158Z" fill="#000088"/>
<path d="M16.585 13.7287C16.6435 13.7807 16.7198 13.7757 16.7554 13.7176C16.791 13.6595 16.7724 13.5703 16.7139 13.5184C16.6554 13.4664 16.5791 13.4714 16.5435 13.5295C16.5079 13.5876 16.5265 13.6768 16.585 13.7287Z" fill="#000088"/>
<path d="M13.7041 15.2932L14.1767 13.6879L14.2964 12.8477L14.034 13.5853L13.7041 15.2932Z" fill="#000088"/>
<path d="M16.2471 14.3905C16.3042 14.4475 16.3854 14.4447 16.4283 14.3843C16.4713 14.3239 16.4598 14.2287 16.4027 14.1718C16.3456 14.1148 16.2645 14.1176 16.2215 14.178C16.1785 14.2384 16.19 14.3335 16.2471 14.3905Z" fill="#000088"/>
<path d="M13.1221 15.0197L13.937 13.5695L14.2092 12.7964L13.78 13.4577L13.1221 15.0197Z" fill="#000088"/>
<path d="M15.7628 14.9001C15.8054 14.9734 15.8862 14.9968 15.9432 14.9522C16.0002 14.9077 16.0118 14.8122 15.9692 14.7389C15.9266 14.6656 15.8458 14.6423 15.7888 14.6868C15.7318 14.7313 15.7202 14.8268 15.7628 14.9001Z" fill="#000088"/>
<path d="M12.6014 14.5476L13.7127 13.4154L14.1582 12.7514L13.5992 13.2462L12.6014 14.5476Z" fill="#000088"/>
<path d="M15.1745 15.2634C15.1997 15.3357 15.2756 15.3648 15.3441 15.3284C15.4127 15.292 15.4478 15.2038 15.4226 15.1315C15.3975 15.0591 15.3215 15.03 15.253 15.0665C15.1845 15.1029 15.1493 15.1911 15.1745 15.2634Z" fill="#000088"/>
<path d="M12.2051 13.9694L13.5355 13.1595L14.1128 12.6602L13.4593 13.0056L12.2051 13.9694Z" fill="#000088"/>
<path d="M14.5375 15.416C14.5439 15.4952 14.6093 15.5483 14.6837 15.5347C14.7581 15.5211 14.8133 15.446 14.8069 15.3669C14.8006 15.2878 14.7351 15.2346 14.6607 15.2482C14.5863 15.2618 14.5312 15.3369 14.5375 15.416Z" fill="#000088"/>
<path d="M11.9529 13.2467L13.4129 12.9088L14.0861 12.595L13.3831 12.7017L11.9529 13.2467Z" fill="#000088"/>
<path d="M13.8883 15.3998C13.8845 15.4879 13.9437 15.5556 14.0205 15.5511C14.0972 15.5465 14.1624 15.4715 14.1662 15.3834C14.1699 15.2953 14.1108 15.2276 14.034 15.2321C13.9573 15.2366 13.892 15.3117 13.8883 15.3998Z" fill="#000088"/>
<path d="M11.8895 12.406L13.3564 12.5397L14.0666 12.5969L13.3721 12.531L11.8895 12.406Z" fill="#000088"/>
<path d="M13.262 15.1695C13.246 15.2642 13.2957 15.3518 13.3731 15.3651C13.4504 15.3785 13.5261 15.3125 13.5421 15.2178C13.5581 15.1231 13.5084 15.0356 13.431 15.0222C13.3537 15.0089 13.278 15.0748 13.262 15.1695Z" fill="#000088"/>
<path d="M11.9398 12.1935L13.4033 12.3562L14.1016 11.967L13.4052 11.7239L11.9398 12.1935Z" fill="#000088"/>
<path d="M12.736 14.7029C12.6932 14.763 12.7051 14.8584 12.7627 14.916C12.8203 14.9736 12.9016 14.9715 12.9445 14.9114C12.9873 14.8512 12.9754 14.7558 12.9178 14.6982C12.8603 14.6407 12.7789 14.6427 12.736 14.7029Z" fill="#000088"/>
<path d="M12.2056 11.029L13.4598 11.9932L14.1133 12.339L13.5359 11.8396L12.2056 11.029Z" fill="#000088"/>
<path d="M12.3073 14.1317C12.2498 14.1749 12.2374 14.2706 12.2797 14.3454C12.322 14.4202 12.4029 14.4458 12.4605 14.4025C12.518 14.3593 12.5304 14.2636 12.4881 14.1888C12.4458 14.114 12.3649 14.0884 12.3073 14.1317Z" fill="#000088"/>
<path d="M12.6057 10.4252L13.5965 11.7359L14.1559 12.2744L13.7152 11.6198L12.6057 10.4252Z" fill="#000088"/>
<path d="M12.0208 13.4501C11.95 13.4731 11.9106 13.5624 11.9327 13.6495C11.9549 13.7367 12.0303 13.7887 12.1011 13.7657C12.1719 13.7428 12.2113 13.6535 12.1892 13.5663C12.167 13.4792 12.0916 13.4272 12.0208 13.4501Z" fill="#000088"/>
<path d="M13.1304 9.96654L13.7715 11.533L14.2026 12.2237L13.942 11.4582L13.1304 9.96654Z" fill="#000088"/>
<path d="M11.8921 12.7011C11.8143 12.7007 11.7526 12.7768 11.7544 12.8712C11.7562 12.9655 11.8208 13.0423 11.8987 13.0427C11.9765 13.0431 12.0382 12.967 12.0364 12.8726C12.0346 12.7783 11.97 12.7015 11.8921 12.7011Z" fill="#000088"/>
<path d="M13.7574 9.67473L13.9611 11.3927L14.2411 12.1922L14.2091 11.3676L13.7574 9.67473Z" fill="#000088"/>
<path d="M11.9099 11.9698C11.8382 11.9542 11.7722 12.0054 11.7624 12.0842C11.7526 12.1629 11.8028 12.2395 11.8745 12.2551C11.9462 12.2708 12.0123 12.2196 12.022 12.1408C12.0318 12.062 11.9816 11.9855 11.9099 11.9698Z" fill="#000088"/>
<path d="M14.4293 9.61843L14.3175 11.2925L14.2784 12.1346L14.3367 11.3534L14.4293 9.61843Z" fill="#000088"/>
<path d="M12.1136 11.2485C12.048 11.2096 11.9717 11.2356 11.9431 11.3067C11.9146 11.3777 11.9446 11.4668 12.0102 11.5057C12.0758 11.5446 12.1521 11.5186 12.1807 11.4475C12.2092 11.3765 12.1792 11.2874 12.1136 11.2485Z" fill="#000088"/>
<path d="M14.9917 9.68854L14.5266 11.3445L14.4324 12.1744L14.6989 11.4005L14.9917 9.68854Z" fill="#000088"/>
<path d="M12.4692 10.6123C12.4142 10.5539 12.3331 10.5543 12.2883 10.6132C12.2434 10.6722 12.2517 10.7674 12.3067 10.8258C12.3618 10.8843 12.4428 10.8838 12.4877 10.8249C12.5326 10.7659 12.5243 10.6708 12.4692 10.6123Z" fill="#000088"/>
<path d="M15.5974 9.98871L14.7794 11.4221L14.4935 12.1973L14.9199 11.5476L15.5974 9.98871Z" fill="#000088"/>
<path d="M12.9554 10.1059C12.9154 10.0302 12.8345 10.0028 12.7748 10.0446C12.715 10.0865 12.6991 10.1818 12.7391 10.2575C12.7791 10.3332 12.86 10.3606 12.9198 10.3187C12.9795 10.2769 12.9955 10.1816 12.9554 10.1059Z" fill="#000088"/>
<path d="M16.1176 10.4664L15.0023 11.5699L14.5443 12.2382L15.1014 11.7634L16.1176 10.4664Z" fill="#000088"/>
<path d="M13.5381 9.73754C13.5129 9.66522 13.437 9.63614 13.3684 9.67258C13.2999 9.70903 13.2647 9.79721 13.2899 9.86953C13.3151 9.94186 13.391 9.97094 13.4595 9.93449C13.5281 9.89805 13.5632 9.80987 13.5381 9.73754Z" fill="#000088"/>
<path d="M16.5074 11.0313L15.1769 11.8413L14.5996 12.3406L15.2531 11.9951L16.5074 11.0313Z" fill="#000088"/>
<path d="M14.1745 9.58495C14.1683 9.5057 14.1028 9.45233 14.0283 9.46577C13.9539 9.4792 13.8985 9.55434 13.9048 9.63359C13.9111 9.71285 13.9765 9.76621 14.051 9.75278C14.1255 9.73935 14.1808 9.66421 14.1745 9.58495Z" fill="#000088"/>
<path d="M16.759 11.7546L15.299 12.0916L14.6256 12.4054L15.3286 12.2994L16.759 11.7546Z" fill="#000088"/>
<path d="M14.8232 9.60621C14.8276 9.51557 14.7697 9.44361 14.6937 9.44548C14.6178 9.44734 14.5525 9.52234 14.548 9.61298C14.5436 9.70362 14.6015 9.77559 14.6775 9.77372C14.7534 9.77185 14.8187 9.69686 14.8232 9.60621Z" fill="#000088"/>
<path d="M16.8211 12.595L15.3614 12.4615L14.6498 12.4039L15.339 12.4696L16.8211 12.595Z" fill="#000088"/>
<path d="M15.451 9.83553C15.4667 9.74296 15.4165 9.65531 15.3388 9.63975C15.2612 9.62418 15.1856 9.68661 15.1699 9.77917C15.1542 9.87174 15.2044 9.95939 15.282 9.97496C15.3596 9.99052 15.4353 9.92809 15.451 9.83553Z" fill="#000088"/>
<path d="M16.7704 12.8712L15.3058 12.5613L14.6136 12.972L15.3128 13.3176L16.7704 12.8712Z" fill="#000088"/>
<path d="M15.9807 10.2664C16.0214 10.1927 16.0059 10.0968 15.9461 10.052C15.8864 10.0073 15.805 10.0308 15.7643 10.1044C15.7236 10.1781 15.7391 10.2741 15.7989 10.3188C15.8586 10.3635 15.94 10.3401 15.9807 10.2664Z" fill="#000088"/>
<path d="M16.5093 13.9293L15.2462 12.9768L14.5941 12.6875L15.1776 13.1994L16.5093 13.9293Z" fill="#000088"/>
<path d="M16.4126 10.835C16.4667 10.7778 16.4732 10.6824 16.427 10.6219C16.3809 10.5614 16.2997 10.5588 16.2456 10.6161C16.1914 10.6733 16.185 10.7687 16.2311 10.8292C16.2772 10.8897 16.3585 10.8923 16.4126 10.835Z" fill="#000088"/>
<path d="M16.1157 14.5416L15.1072 13.2403L14.5498 12.7479L15.0027 13.4128L16.1157 14.5416Z" fill="#000088"/>
<path d="M16.7077 11.519C16.772 11.4813 16.7997 11.3916 16.7696 11.3188C16.7395 11.246 16.663 11.2176 16.5988 11.2554C16.5346 11.2931 16.5069 11.3828 16.537 11.4556C16.567 11.5284 16.6435 11.5568 16.7077 11.519Z" fill="#000088"/>
<path d="M15.6034 15.0098L14.9149 13.45L14.4904 12.7965L14.784 13.5709L15.6034 15.0098Z" fill="#000088"/>
<path d="M16.8428 12.2688C16.9125 12.2525 16.9593 12.1748 16.9473 12.0954C16.9352 12.016 16.8689 11.9648 16.7992 11.9812C16.7294 11.9975 16.6826 12.0751 16.6947 12.1546C16.7067 12.234 16.773 12.2852 16.8428 12.2688Z" fill="#000088"/>
<path d="M15.0086 15.3039L14.6828 13.5925L14.4213 12.8269L14.5386 13.6594L15.0086 15.3039Z" fill="#000088"/>
</g>
<defs>
<clipPath id="clip0_2887_36">
<rect width="28.307" height="24.9524" fill="white" transform="translate(0.202942 0.0239258)"/>
</clipPath>
</defs>
</svg>
